<?xml version="1.0" standalone="no"?>
<!DOCTYPE svg PUBLIC "-//W3C//DTD SVG 20010904//EN"
 "http://www.w3.org/TR/2001/REC-SVG-20010904/DTD/svg10.dtd">
<svg version="1.0" xmlns="http://www.w3.org/2000/svg"
 width="920.000000pt" height="920.000000pt" viewBox="0 0 920.000000 920.000000"
 preserveAspectRatio="xMidYMid meet">
<metadata>
Created by potrace 1.14, written by Peter Selinger 2001-2017
</metadata>
<g transform="translate(0.000000,920.000000) scale(0.100000,-0.100000)"
fill="#000000" stroke="none">
<path d="M5163 7073 c-18 -9 -35 -25 -39 -35 -3 -10 -10 -18 -15 -18 -6 0 -8
-4 -4 -9 3 -5 1 -12 -5 -16 -6 -4 -8 -11 -5 -16 4 -5 2 -9 -4 -9 -5 0 -10 -8
-9 -17 0 -28 -12 -77 -22 -87 -5 -5 -6 -15 -3 -22 3 -8 0 -14 -7 -14 -6 0 -9
-4 -6 -8 3 -5 -4 -37 -16 -73 -11 -35 -20 -70 -21 -76 0 -7 -4 -13 -9 -13 -5
0 -7 -4 -3 -9 3 -5 -2 -31 -11 -58 -9 -26 -18 -55 -19 -63 -2 -8 -4 -15 -5
-15 -1 0 -4 -9 -6 -20 -3 -11 -6 -24 -7 -30 -1 -5 -6 -16 -10 -22 -5 -7 -6
-13 -3 -13 3 0 1 -12 -5 -27 -6 -16 -13 -37 -15 -48 -10 -42 -13 -50 -14 -50
-1 0 -4 -13 -6 -30 -3 -16 -9 -32 -15 -33 -5 -2 -7 -8 -3 -13 3 -5 2 -15 -3
-21 -8 -14 -8 -15 -18 -63 -3 -16 -10 -34 -16 -41 -5 -6 -7 -13 -4 -16 3 -3
-2 -21 -10 -41 -8 -21 -13 -37 -10 -37 3 0 -1 -13 -10 -30 -9 -16 -14 -30 -11
-30 2 0 -9 -44 -26 -97 -16 -54 -31 -105 -33 -113 -2 -8 -4 -17 -5 -20 -1 -3
-3 -9 -5 -15 -1 -5 -3 -12 -4 -15 -2 -3 -4 -13 -6 -23 -2 -10 -7 -26 -11 -35
-4 -9 -8 -24 -10 -32 -5 -25 -12 -55 -14 -55 -1 0 -3 -11 -6 -24 -2 -14 -9
-30 -14 -36 -5 -7 -7 -15 -3 -18 3 -4 1 -13 -5 -20 -7 -8 -9 -17 -6 -20 3 -3
2 -12 -2 -19 -5 -7 -10 -22 -11 -32 -2 -11 -8 -25 -14 -33 -6 -7 -9 -13 -6
-13 3 0 1 -15 -4 -32 -6 -18 -12 -44 -15 -58 -3 -13 -9 -29 -15 -36 -5 -6 -6
-14 -2 -17 3 -4 0 -14 -8 -23 -8 -10 -13 -19 -11 -21 1 -1 2 -4 1 -5 0 -2 -2
-14 -5 -28 -2 -14 -7 -32 -11 -40 -3 -8 -5 -21 -4 -27 1 -7 -3 -13 -9 -13 -6
0 -8 -4 -5 -10 3 -5 3 -16 -2 -22 -4 -7 -9 -22 -10 -33 -2 -11 -6 -27 -10 -35
-3 -8 -7 -19 -8 -25 -1 -5 -3 -12 -4 -15 -1 -3 -4 -16 -7 -29 -2 -14 -9 -30
-14 -36 -5 -7 -7 -15 -4 -18 3 -3 2 -12 -2 -19 -5 -7 -10 -17 -11 -23 -1 -5
-4 -19 -7 -30 -2 -11 -5 -22 -6 -25 -1 -3 -2 -9 -1 -13 1 -4 -4 -17 -10 -28
-6 -11 -13 -30 -15 -42 -9 -38 -12 -52 -14 -52 -1 0 -6 -17 -13 -47 -1 -7 -6
-19 -10 -25 -5 -7 -6 -13 -2 -13 3 0 -1 -13 -9 -29 -9 -16 -13 -31 -10 -34 3
-3 2 -12 -2 -19 -5 -7 -10 -22 -11 -33 -2 -11 -10 -37 -18 -57 -8 -21 -13 -38
-10 -38 2 0 -2 -15 -10 -34 -8 -18 -11 -36 -8 -40 4 -3 1 -6 -6 -6 -7 0 -10
-4 -7 -9 4 -5 1 -22 -5 -38 -6 -15 -13 -41 -16 -58 -3 -16 -8 -32 -11 -35 -4
-3 -8 -12 -9 -20 -1 -8 -9 -40 -18 -70 -9 -30 -18 -63 -20 -73 -2 -9 -6 -21
-9 -25 -3 -5 -8 -23 -11 -41 -3 -19 -12 -49 -20 -67 -8 -19 -12 -34 -10 -34 3
0 0 -12 -6 -27 -6 -16 -12 -35 -14 -43 -3 -8 -11 -40 -20 -70 -9 -30 -18 -66
-21 -79 -3 -13 -10 -34 -16 -45 -6 -12 -11 -22 -10 -23 1 -2 2 -4 1 -5 -2 -9
-9 -37 -14 -62 -3 -16 -8 -33 -11 -38 -6 -9 -15 -47 -16 -65 -1 -7 -5 -13 -9
-13 -4 0 -6 -6 -6 -12 1 -13 -18 -89 -30 -118 -3 -8 -5 -21 -4 -27 1 -7 -2
-13 -6 -13 -5 0 -10 -9 -11 -20 -4 -44 -6 -50 -14 -50 -5 0 -7 -4 -3 -9 3 -5
1 -20 -4 -33 -11 -30 -31 -92 -36 -115 -10 -44 -44 -160 -53 -183 -5 -14 -10
-28 -11 -32 0 -5 -2 -10 -2 -13 -1 -3 -3 -9 -4 -15 -1 -5 -3 -11 -5 -12 -1 -2
-3 -12 -6 -23 -2 -11 -6 -35 -10 -52 -3 -18 -11 -33 -16 -33 -5 0 -7 -4 -4 -9
4 -5 1 -22 -6 -38 -6 -15 -12 -35 -13 -43 -1 -9 -7 -25 -13 -37 -6 -11 -9 -23
-7 -25 3 -3 -2 -25 -11 -49 -9 -24 -17 -48 -18 -54 -2 -5 -8 -30 -15 -55 -8
-25 -15 -52 -16 -60 -2 -8 -4 -16 -5 -17 -2 -2 -3 -7 -4 -12 0 -5 -4 -12 -8
-16 -4 -4 -4 -13 -1 -21 3 -8 -1 -14 -8 -14 -7 0 -10 -3 -7 -6 4 -3 2 -20 -4
-37 -5 -18 -10 -36 -11 -42 -2 -5 -6 -16 -10 -22 -5 -7 -6 -13 -3 -13 3 0 -3
-24 -12 -52 -17 -49 -20 -92 -11 -128 7 -26 58 -70 89 -77 17 -3 30 -10 30
-15 0 -6 7 -7 16 -4 9 3 21 3 27 -1 13 -8 14 -8 61 -18 16 -3 37 -10 48 -16
10 -5 18 -7 18 -3 0 3 6 1 13 -5 8 -6 17 -8 20 -5 3 3 11 2 19 -2 18 -12 68
-12 68 -1 0 6 3 7 7 4 8 -9 85 72 79 82 -3 4 1 19 9 34 7 14 11 28 9 30 -3 2
1 17 8 33 6 16 12 34 13 39 0 6 4 16 8 23 5 6 6 12 2 12 -3 0 1 16 9 35 9 20
15 38 15 40 0 22 15 76 22 81 5 3 7 10 4 15 -4 5 -3 15 2 22 4 6 8 18 9 25 2
8 6 21 10 30 7 18 10 28 20 80 3 17 10 32 15 32 5 0 6 6 3 14 -3 8 0 17 5 21
6 3 9 11 6 16 -4 5 -3 15 2 22 4 6 9 18 10 24 7 31 12 48 13 48 1 0 3 8 6 17
2 10 6 26 8 35 3 10 5 18 6 18 1 0 3 11 6 24 2 14 9 30 15 38 6 7 9 13 6 13
-3 0 -1 15 4 33 6 17 12 39 14 48 10 45 30 105 38 116 5 7 6 17 3 22 -4 5 -2
12 4 16 6 4 8 10 5 15 -3 5 -1 11 4 15 6 3 8 12 4 20 -3 8 0 15 7 15 6 0 8 5
5 10 -4 6 -1 17 5 25 7 8 9 15 5 15 -4 0 -2 6 4 13 6 8 8 16 5 19 -3 3 2 22
10 42 8 20 13 36 10 36 -2 0 2 15 9 33 8 17 15 35 15 40 1 4 2 8 3 10 2 6 9
34 13 52 2 11 5 21 6 23 2 1 4 7 5 12 1 6 3 11 5 13 3 3 9 29 16 67 3 19 10
37 15 38 5 2 7 8 3 13 -3 5 -2 15 3 22 8 13 8 14 18 61 3 16 8 33 11 38 3 4 7
18 9 29 5 23 22 83 32 109 3 8 7 20 8 25 7 39 19 76 26 81 4 2 6 11 3 18 -3 8
0 17 5 21 6 3 9 10 6 15 -3 4 2 24 10 44 8 20 13 36 10 36 -3 0 2 17 9 38 8
20 22 64 32 97 21 74 22 75 27 100 14 59 20 81 26 90 6 11 12 32 13 53 1 6 5
12 10 12 5 0 7 4 4 9 -4 5 -1 22 5 38 6 15 13 42 16 58 3 17 9 32 14 33 5 2 7
8 3 13 -3 5 -2 15 3 22 4 6 8 17 10 22 10 46 13 56 18 65 4 6 8 24 10 41 3 17
10 38 16 45 7 8 9 17 6 20 -3 4 0 23 8 43 7 20 17 50 21 66 10 40 11 44 14 50
1 3 4 10 5 15 1 6 3 11 4 13 2 1 4 13 7 27 2 14 7 32 11 40 8 18 7 17 17 60 5
19 11 40 14 45 4 6 8 19 9 30 2 11 6 27 10 35 8 20 11 29 18 64 3 16 8 33 11
38 5 7 7 17 17 63 2 6 6 16 10 23 5 6 6 12 2 12 -3 0 1 16 9 35 8 19 13 35 11
35 -2 0 3 19 11 43 9 23 17 49 19 57 2 8 4 17 5 20 1 3 2 8 1 12 0 4 6 23 14
42 9 20 13 36 10 36 -3 0 1 13 9 29 9 16 13 31 10 34 -3 3 -2 12 2 19 5 7 9
15 10 18 9 52 18 81 25 86 5 3 7 9 4 14 -3 5 1 25 9 45 8 19 13 35 11 35 -2 0
3 16 11 35 8 19 14 37 14 40 0 3 0 6 1 8 2 8 9 36 14 62 3 16 10 34 15 40 4 5
8 13 9 18 1 28 15 78 22 83 5 3 7 10 4 15 -4 5 -3 15 2 22 4 6 8 18 9 25 2 8
6 21 10 30 4 9 9 28 11 42 2 14 6 32 10 40 6 16 11 31 16 53 1 6 6 18 10 25 5
6 6 12 2 12 -3 0 -1 8 4 18 6 11 12 30 15 43 2 13 13 52 24 87 11 34 18 62 16
62 -3 0 0 8 5 19 6 10 13 33 16 52 3 19 10 38 15 43 5 5 6 15 3 22 -3 8 0 14
7 14 6 0 8 5 5 10 -3 6 -3 16 2 23 8 13 8 14 18 61 3 16 10 37 16 48 5 10 7
18 3 18 -3 0 -1 7 6 15 7 8 10 15 7 15 -3 0 1 19 7 41 9 31 10 50 2 74 -13 38
-62 85 -87 85 -11 0 -19 4 -19 8 0 5 -6 9 -12 9 -18 1 -103 20 -103 23 0 3
-38 11 -72 17 -18 3 -33 8 -33 12 0 13 -77 9 -107 -6z"/>
<path d="M2890 6327 c-14 -7 -453 -441 -975 -963 -696 -696 -952 -958 -961
-984 -15 -43 -9 -77 21 -115 23 -31 1857 -1868 1891 -1895 11 -8 30 -17 44
-19 14 -2 32 -4 40 -6 8 -1 21 2 28 8 6 5 12 6 12 3 0 -4 7 -1 15 6 26 21 228
224 248 248 19 23 30 110 15 110 -5 0 -6 4 -3 10 3 6 1 10 -4 10 -6 0 -11 4
-11 10 0 5 -356 365 -791 801 l-792 791 789 790 c434 434 794 795 799 802 22
25 25 81 8 118 -12 24 -206 227 -256 267 -25 20 -88 24 -117 8z"/>
<path d="M6200 6321 c-42 -26 -251 -242 -262 -270 -15 -39 -15 -64 0 -88 8
-13 12 -23 8 -23 -3 0 352 -358 789 -795 437 -437 795 -798 795 -802 0 -4
-354 -362 -787 -795 -433 -433 -792 -797 -799 -810 -18 -35 -19 -70 -2 -108
18 -40 258 -279 282 -281 91 -7 43 -52 1055 961 523 523 958 964 966 980 19
36 15 87 -8 121 -16 22 -1219 1229 -1717 1723 l-205 203 -45 0 c-25 0 -56 -7
-70 -16z"/>
</g>
</svg>
